<?xml version="1.0" standalone="no"?>
<!DOCTYPE svg PUBLIC "-//W3C//DTD SVG 20010904//EN"
 "http://www.w3.org/TR/2001/REC-SVG-20010904/DTD/svg10.dtd">
<svg version="1.0" xmlns="http://www.w3.org/2000/svg"
 width="80.000000pt" height="80.000000pt" viewBox="0 0 80.000000 80.000000"
 preserveAspectRatio="xMidYMid meet">

<g transform="translate(0.000000,80.000000) scale(0.100000,-0.100000)"
fill="#000000" stroke="none">
<path d="M105 439 c-4 -6 -5 -12 -2 -15 2 -3 7 2 10 11 7 17 1 20 -8 4z"/>
<path d="M695 440 c-3 -5 -1 -10 4 -10 6 0 11 5 11 10 0 6 -2 10 -4 10 -3 0
-8 -4 -11 -10z"/>
<path d="M375 420 c-6 -17 -13 -21 -36 -18 -28 4 -30 2 -68 -96 -60 -156 -59
-148 -15 -144 l37 3 48 134 c27 74 47 136 45 139 -2 2 -7 -6 -11 -18z"/>
<path d="M176 414 c-4 -10 -14 -14 -26 -11 -21 5 -24 -4 -11 -38 7 -18 10 -17
30 15 20 33 26 50 17 50 -2 0 -7 -7 -10 -16z"/>
<path d="M664 422 c11 -18 -21 -27 -41 -11 -15 13 -15 12 -5 -6 6 -11 17 -29
25 -39 13 -18 15 -17 26 14 8 26 8 36 0 44 -9 8 -10 8 -5 -2z"/>
<path d="M420 419 c0 -7 42 -130 70 -201 20 -55 23 -58 56 -58 19 0 34 4 34 9
0 20 -94 253 -98 243 -5 -16 -35 -15 -50 0 -7 7 -12 10 -12 7z"/>
<path d="M196 385 c-16 -25 -16 -25 14 -25 31 0 35 6 24 34 -9 22 -19 20 -38
-9z"/>
<path d="M571 392 c-17 -33 -13 -42 19 -42 35 0 36 6 11 39 l-19 24 -11 -21z"/>
<path d="M150 335 c0 -3 7 -21 14 -40 12 -29 20 -35 45 -35 38 0 41 7 25 48
-12 27 -19 32 -49 32 -19 0 -35 -2 -35 -5z"/>
<path d="M363 245 l-30 -85 67 0 67 0 -30 85 c-17 47 -34 85 -37 85 -3 0 -20
-38 -37 -85z"/>
<path d="M570 304 c-15 -39 -13 -44 24 -44 29 0 36 4 45 31 6 18 11 34 11 35
0 2 -16 4 -35 4 -29 0 -37 -5 -45 -26z"/>
<path d="M189 241 l-27 -6 18 -44 17 -44 16 48 c10 27 17 50 17 52 0 4 -6 3
-41 -6z"/>
<path d="M588 195 c16 -43 17 -44 28 -23 6 13 15 33 18 46 7 20 4 22 -28 22
l-35 0 17 -45z"/>
</g>
</svg>
